#N canvas -23 -37 1920 966 12;
#X obj 4 3 cnv 15 800 300 empty empty Activations 20 12 0 14 #c7c6ff
#404040 0;
#X msg 13 230 \; snare_vol 0 \;;
#X msg 13 263 \; snare_vol 0.4 \;;
#X text 14 78 Part 1;
#X msg 733 7 \; pd dsp 0;
#X msg 733 49 \; pd dsp 1;
#X msg 127 230 \; kick_vol 0 \;;
#X obj 342 710 cnv 15 600 235 empty empty Output 20 12 0 14 #ffc7c6
#404040 0;
#X msg 489 29 \; left_vol 0.6 \; right_vol 0.6 \;;
#X text 488 11 Volume Global;
#X obj 44 315 sequencer;
#X obj 365 743 Master;
#X text 340 8 Sequencer parameters;
#X msg 365 29 \; global_bpm 120 \; seq_subd 8 \;;
#X text 12 213 Snare on/off;
#X text 126 214 Kick on/off;
#X text 234 215 Bass on/off;
#X msg 235 231 \; bass_vol 0 \;;
#X msg 235 264 \; bass_vol 1 \;;
#X text 659 7 DSP ON/OFF;
#X text 328 214 HH start on/off;
#X msg 329 231 \; hh_start_vol 0 \;;
#X msg 329 264 \; hh_start_vol 1 \;;
#X text 450 215 HH on/off;
#X msg 451 231 \; hh_vol 0 \;;
#X msg 451 264 \; hh_vol 1 \;;
#X text 533 215 Conga on/off;
#X msg 534 231 \; conga_vol 0 \;;
#X msg 534 264 \; conga_vol 1 \;;
#X obj 1108 753 record;
#X msg 13 96 \; snare_vol 0 \; kick_vol 0 \; hh_vol 0 \; hh_start_vol
1 \; conga_vol 0 \; bass_vol 0 \;;
#X text 142 78 Part 2;
#X text 266 78 Part 3;
#X text 393 78 Part 4;
#X obj 877 643 r~ synth;
#X obj 379 664 s~ Seq;
#X obj 943 643 r~ Seq;
#X obj 993 643 r~ guitar;
#X msg 651 97 \; snare_vol 0 \; kick_vol 0 \; hh_vol 0 \; hh_start_vol
1 \; conga_vol 0 \; bass_vol 0 \;;
#X obj 824 4 cnv 15 400 550 empty empty Synth 10 12 0 14 #b681f5 #404040
0;
#N canvas -121 57 1920 966 Synthé 0;
#X obj 391 54 Midi_3poly, f 25;
#X obj 162 380 triangle;
#X obj 166 521 *~;
#X obj 287 464 triangle;
#X obj 342 495 *~;
#X obj 388 486 triangle;
#X obj 419 557 *~;
#X obj 296 703 +~;
#X obj 290 760 /~ 3;
#X obj 289 806 outlet~;
#X obj 101 101 cnv 15 220 100 empty empty PolySynth 10 12 0 14 #9a9acd
#404040 0;
#X floatatom 198 104 5 0 0 0 - - - 0;
#X floatatom 235 104 5 0 0 0 - - - 0;
#X floatatom 272 104 5 0 0 0 - - - 0;
#X obj 128 140 vsl 15 50 0 10 0 0 empty rate1 rate 0 -9 0 8 #ffe3c6
#000000 #000000 0 1;
#X obj 149 140 vsl 15 50 0 1 0 0 empty d1 depth 0 -9 0 8 #ffff80 #000000
#000000 0 1;
#X text 103 136 LFO V1, f 3;
#X obj 192 140 vsl 15 50 0 10 0 0 empty rate2 rate 0 -9 0 8 #ffe3c6
#000000 #000000 0 1;
#X obj 213 140 vsl 15 50 0 1 0 0 empty d2 depth 0 -9 0 8 #ffff80 #000000
#000000 0 1;
#X obj 267 140 vsl 15 50 0 10 0 0 empty rate3 rate 0 -9 0 8 #ffe3c6
#000000 #000000 0 1;
#X obj 288 140 vsl 15 50 0 1 0 0 empty d3 depth 0 -9 0 8 #ffff80 #000000
#000000 0 1;
#X text 167 136 LFO V2, f 3;
#X text 242 136 LFO V3, f 3;
#X msg 515 95 \; rate1 4 \; rate2 8 \; rate3 2 \; d1 0.4 \; d2 0.8
\; d3 0.5 \;;
#X obj 208 569 osc~;
#X obj 209 604 *~;
#X obj 188 643 *~;
#X obj 300 555 osc~;
#X obj 301 590 *~;
#X obj 280 629 *~;
#X obj 362 567 osc~;
#X obj 363 602 *~;
#X obj 342 641 *~;
#X obj 303 735 +~;
#X connect 0 0 11 0;
#X connect 0 1 2 1;
#X connect 0 2 12 0;
#X connect 0 3 4 1;
#X connect 0 4 13 0;
#X connect 0 5 6 1;
#X connect 1 0 2 0;
#X connect 2 0 26 0;
#X connect 3 0 4 0;
#X connect 4 0 29 0;
#X connect 5 0 6 0;
#X connect 6 0 32 0;
#X connect 7 0 33 0;
#X connect 8 0 9 0;
#X connect 11 0 1 0;
#X connect 12 0 3 0;
#X connect 13 0 5 0;
#X connect 14 0 24 0;
#X connect 15 0 25 1;
#X connect 17 0 27 0;
#X connect 18 0 28 1;
#X connect 19 0 30 0;
#X connect 20 0 31 1;
#X connect 24 0 25 0;
#X connect 25 0 26 1;
#X connect 26 0 7 0;
#X connect 27 0 28 0;
#X connect 28 0 29 1;
#X connect 29 0 7 1;
#X connect 30 0 31 0;
#X connect 31 0 32 1;
#X connect 32 0 33 1;
#X connect 33 0 8 0;
#X coords 0 -1 1 1 220 100 1 100 100;
#X restore 859 46 pd Synthé;
#X obj 858 307 reverb;
#X msg 963 326 \; dry 0.4 \; wet 1 \; time 40 \;;
#X msg 1088 59 \; rate1 0 \; rate2 0 \; rate3 0 \; d1 0.4 \; d2 0.8
\; d3 0.5 \;;
#X obj 858 153 Delay2;
#X obj 1056 263 cnv 15 35 180 empty empty Vol 10 12 0 14 #ffc7c6 #404040
0;
#X obj 1066 303 vsl 15 128 0 5 0 0 empty vol_synth empty 0 -9 0 10
#ffc7c6 #000000 #000000 0 1;
#X obj 858 488 *~;
#X obj 857 523 s~ synth;
#X msg 1094 265 \; vol_synth 0 \;;
#X text 961 309 Preset Rev;
#X text 1087 44 Pre Poly;
#X obj 1248 0 cnv 15 250 800 empty empty Guitar 20 12 0 14 #ff4d00
#404040 0;
#X obj 1264 29 Input_Son;
#X obj 1264 133 Chorus;
#X msg 1348 155 \; Speed 0.7 \; Depth 2.4 \; Feedback -0.3 \;;
#X text 1348 135 Preset Chorus;
#X obj 1392 333 AM;
#X obj 1392 464 AM;
#X obj 1393 594 Delay;
#X text 1271 609 Preset Delay;
#X msg 1271 628 \; del_time 1000 \; del_feed 0.5 \;;
#X msg 1371 80 \; gain_in 0 \;;
#X msg 1265 403 \; am_speed 4 \; am_gain 0.5 \;;
#X obj 1392 766 s~ guitar;
#X text 1265 385 Preset AM;
#X msg 127 263 \; kick_vol 0.5 \;;
#X obj 379 637 /~ 3;
#X msg 1371 33 \; gain_in 0.4 \; channel_in 1 \;;
#X msg 392 95 \; snare_vol 0.4 \; kick_vol 0.5 \; hh_vol 1 \; hh_start_vol
0 \; conga_vol 0.5 \; bass_vol 1 \;;
#X msg 265 95 \; snare_vol 0.4 \; kick_vol 0 \; hh_vol 1 \; hh_start_vol
0 \; conga_vol 0 \; bass_vol 1 \;;
#X msg 141 96 \; snare_vol 0.4 \; kick_vol 0 \; hh_vol 0 \; hh_start_vol
1 \; conga_vol 0 \; bass_vol 0 \;;
#X text 522 79 Part 5;
#X msg 521 97 \; snare_vol 0 \; kick_vol 0 \; hh_vol 1 \; hh_start_vol
0 \; conga_vol 0 \; bass_vol 0 \;;
#X text 652 79 Part 6;
#X msg 1094 297 \; vol_synth 3 \;;
#X obj 1687 8 cnv 15 200 600 empty empty Initialisation 10 12 0 14
#ff0400 #404040 0;
#X text 1715 54 Presets to initialise all the inputs and sequencer
, f 16;
#X msg 1722 155 \; pd dsp 1 \; left_vol 0.6 \; right_vol 0.6 \; global_bpm
120 \; seq_subd 8 \; snare_vol 0 \; kick_vol 0 \; hh_vol 0 \; hh_start_vol
1 \; conga_vol 0 \; bass_vol 0 \; Speed 0.7 \; Depth 2.4 \; Feedback
-0.3 \; am_speed 1 \; am_gain 0.5 \; del_time 1000 \; del_feed 0.5
\; rate1 0 \; rate2 0 \; rate3 0 \; d1 0.4 \; d2 0.8 \; d3 0.5 \; dry
0.4 \; wet 1 \; time 40 \; vol_synth 3 \; gain_in 0.4 \;, f 17;
#X text 20 28 Setup to change parts in the sequencer;
#X connect 10 0 67 0;
#X connect 10 1 67 0;
#X connect 34 0 11 0;
#X connect 34 0 11 1;
#X connect 34 0 29 0;
#X connect 36 0 11 0;
#X connect 36 0 11 1;
#X connect 36 0 29 0;
#X connect 37 0 11 0;
#X connect 37 0 11 1;
#X connect 37 0 29 0;
#X connect 40 0 44 0;
#X connect 41 0 47 0;
#X connect 44 0 41 0;
#X connect 46 0 47 1;
#X connect 47 0 48 0;
#X connect 53 0 54 0;
#X connect 54 0 57 0;
#X connect 54 0 59 0;
#X connect 54 1 57 0;
#X connect 54 1 59 0;
#X connect 57 0 58 0;
#X connect 58 0 59 0;
#X connect 59 0 64 0;
#X connect 67 0 35 0;
