#N canvas -25 48 1920 966 12;
#X obj 67 351 cnv 15 700 400 empty empty 303\\\ Bass 20 12 0 14 #ff8300
#404040 0;
#X obj 89 381 r midi;
#X obj 89 410 mtof;
#X obj 194 458 bng 15 250 50 0 empty empty empty 17 7 0 10 #fcfcfc
#000000 #000000;
#X obj 627 448 bng 15 250 50 0 empty empty empty 17 7 0 10 #fcfcfc
#000000 #000000;
#X floatatom 84 489 5 0 0 0 - - - 0;
#X obj 84 544 phasor~;
#X obj 84 596 send~ Saw_Bass;
#X msg 194 491 1 10;
#X obj 194 532 line;
#X floatatom 200 569 5 0 0 0 - - - 0;
#X obj 203 597 * 4000;
#X obj 205 628 + 500;
#X floatatom 206 661 5 0 0 0 - - - 0;
#X obj 206 694 s Filter_Freq;
#X obj 239 475 delay 10;
#X msg 238 499 0 250;
#X obj 476 470 receive~ Saw_Bass;
#X obj 477 560 vcf~;
#X obj 489 493 r Filter_Freq;
#X obj 502 515 loadbang;
#X msg 502 537 25;
#X obj 327 468 receive~ Saw_Bass;
#X obj 328 558 vcf~;
#X obj 340 491 r Filter_Freq;
#X obj 353 513 loadbang;
#X msg 353 535 9;
#X obj 610 669 *~;
#X obj 671 475 delay 10;
#X msg 671 499 0 250;
#X msg 627 483 1 10;
#X obj 627 525 line;
#X floatatom 627 548 5 0 0 0 - - - 0;
#X obj 335 881 outlet~;
#X text 196 716 Cut-Off Frequency;
#X text 404 446 Resonante LPF;
#X text 96 618 Signal;
#X obj 16 7 cnv 15 100 300 empty empty Bass\ Line 20 12 0 14 #c7c6ff
#404040 0;
#X obj 28 63 bng 15 250 50 0 empty empty empty 17 7 0 10 #fcfcfc #000000
#000000;
#X floatatom 27 130 5 0 0 0 - - - 0;
#X floatatom 27 249 5 0 0 0 - - - 0;
#X obj 28 283 s midi;
#X obj 462 796 inlet;
#X obj 343 839 *~;
#X obj 28 31 inlet;
#X obj 27 84 random 14;
#X obj 27 185 + 30;
#X text 116 158 Bass Lines given a random note between 30 et 43 in
midi pitch, f 19;
#X text 511 796 Volume Inlet;
#X text 123 29 Bang inlet;
#X text 778 355 Try of a 303 Bass using vcf and enveloppe;
#X connect 1 0 2 0;
#X connect 2 0 5 0;
#X connect 2 0 3 0;
#X connect 2 0 4 0;
#X connect 3 0 8 0;
#X connect 3 0 15 0;
#X connect 4 0 30 0;
#X connect 4 0 28 0;
#X connect 5 0 6 0;
#X connect 6 0 7 0;
#X connect 8 0 9 0;
#X connect 9 0 10 0;
#X connect 10 0 11 0;
#X connect 11 0 12 0;
#X connect 12 0 13 0;
#X connect 13 0 14 0;
#X connect 15 0 16 0;
#X connect 16 0 9 0;
#X connect 17 0 18 0;
#X connect 18 0 27 0;
#X connect 19 0 18 1;
#X connect 20 0 21 0;
#X connect 21 0 18 2;
#X connect 22 0 23 0;
#X connect 23 0 27 0;
#X connect 24 0 23 1;
#X connect 25 0 26 0;
#X connect 26 0 23 2;
#X connect 27 0 43 0;
#X connect 28 0 29 0;
#X connect 29 0 31 0;
#X connect 30 0 31 0;
#X connect 31 0 32 0;
#X connect 32 0 27 1;
#X connect 38 0 45 0;
#X connect 39 0 46 0;
#X connect 40 0 41 0;
#X connect 42 0 43 1;
#X connect 43 0 33 0;
#X connect 44 0 38 0;
#X connect 45 0 39 0;
#X connect 46 0 40 0;
