#N canvas 64 64 1920 966 12;
#X obj 563 68 delwrite~ phase1 100;
#X text 713 67 Write to delay lines;
#X obj 726 149 delwrite~ phase2 100;
#X obj 461 827 r~ Chorus;
#X obj 555 601 s~ Chorus;
#X obj 551 278 phasor~;
#X obj 528 354 cos~;
#X obj 529 381 *~ 2;
#X obj 529 406 +~ 2;
#X obj 592 354 +~ 0.5;
#X obj 594 442 *~ 2;
#X obj 594 468 +~ 2;
#X obj 594 418 cos~;
#X obj 593 390 wrap~;
#X obj 595 523 *~ 0.8;
#X obj 485 509 *~ 0.8;
#X text 604 276 LFO;
#X obj 388 23 inlet~;
#X obj 364 870 outlet~, f 8;
#X obj 431 870 outlet~, f 8;
#X obj 485 483 vd~ phase1;
#X obj 594 497 vd~ phase2;
#X obj 100 100 cnv 15 76 192 empty empty Chorus 20 12 0 14 #c6ffc7
#404040 0;
#X obj 105 132 vsl 15 128 0 1 0 0 empty Speed Speed 0 -9 0 10 #efe8d6
#000000 #000000 0 1;
#X obj 123 142 vsl 15 128 0 3 0 0 empty Depth Depth 0 -9 0 10 #c7c6ff
#000000 #000000 0 1;
#X obj 141 152 vsl 15 128 -0.5 0.5 0 0 empty Feedback Fback 0 -9 0
10 #feffc6 #000000 #000000 0 1;
#X text 925 37 A Chorus with 2 phases delay;
#X connect 3 0 18 0;
#X connect 3 0 19 0;
#X connect 5 0 6 0;
#X connect 5 0 9 0;
#X connect 6 0 7 0;
#X connect 7 0 8 0;
#X connect 8 0 20 0;
#X connect 9 0 13 0;
#X connect 10 0 11 0;
#X connect 11 0 21 0;
#X connect 12 0 10 0;
#X connect 13 0 12 0;
#X connect 14 0 2 0;
#X connect 15 0 0 0;
#X connect 17 0 0 0;
#X connect 17 0 2 0;
#X connect 17 0 19 0;
#X connect 17 0 18 0;
#X connect 20 0 15 0;
#X connect 20 0 4 0;
#X connect 21 0 14 0;
#X connect 21 0 4 0;
#X connect 23 0 5 0;
#X connect 24 0 7 1;
#X connect 24 0 8 1;
#X connect 24 0 10 1;
#X connect 24 0 11 1;
#X connect 25 0 14 1;
#X connect 25 0 15 1;
#X coords 0 -1 1 1 75 190 1 100 100;
