#N canvas -8 0 958 956 12;
#X obj 39 32 inlet~;
#X obj 146 34 inlet;
#X obj 88 85 *~;
#X obj 87 139 expr~ if($v1 > 1 \, 2-$v1 \, $v1);
#X obj 88 194 expr~ if($v1 > 1 \, -2-$v1 \, $v1);
#X obj 89 263 outlet~;
#X text 144 13 Vol disto;
#X text 39 10 Signal;
#X connect 0 0 2 0;
#X connect 1 0 2 1;
#X connect 2 0 3 0;
#X connect 3 0 4 0;
#X connect 4 0 5 0;
