#N canvas -8 0 958 956 12;
#X obj 46 212 hip~ 1000, f 27;
#X floatatom 232 187 5 0 0 0 - - - 0;
#X obj 45 277 outlet~;
#X obj 47 46 inlet~;
#X obj 47 91 expr~ $v1 * 2 -1;
#X obj 232 48 inlet;
#X text 228 31 Cut_Off;
#X text 117 4 Simple Low Pass;
#X text 48 24 Signal;
#X connect 0 0 2 0;
#X connect 1 0 0 1;
#X connect 3 0 4 0;
#X connect 4 0 0 0;
#X connect 5 0 1 0;
