#N canvas -8 0 958 956 12;
#X floatatom 329 358 5 0 0 0 - - - 0;
#X obj 327 406 mtof;
#X obj 327 476 t f b;
#X msg 373 517 0.2 60;
#X obj 391 579 line~;
#X msg 429 537 0 20;
#X obj 432 501 del 20;
#X obj 425 458 bng 15 250 50 0 empty empty empty 17 7 0 10 #fcfcfc
#000000 #000000;
#X obj 412 418 moses 1;
#X floatatom 421 396 5 0 0 0 - - - 0;
#X obj 384 638 outlet~;
#X obj 314 640 outlet;
#X obj 537 37 notein;
#X obj 505 163 pack 0 0 0;
#X obj 354 310 unpack 0 0;
#X floatatom 506 372 5 0 0 0 - - - 0;
#X obj 504 420 mtof;
#X obj 504 490 t f b;
#X msg 550 531 0.2 60;
#X obj 568 593 line~;
#X msg 606 551 0 20;
#X obj 609 515 del 20;
#X obj 602 472 bng 15 250 50 0 empty empty empty 17 7 0 10 #fcfcfc
#000000 #000000;
#X obj 589 432 moses 1;
#X floatatom 598 410 5 0 0 0 - - - 0;
#X obj 561 652 outlet~;
#X obj 491 654 outlet;
#X obj 531 324 unpack 0 0;
#X floatatom 669 382 5 0 0 0 - - - 0;
#X obj 667 430 mtof;
#X obj 667 500 t f b;
#X msg 713 541 0.2 60;
#X obj 731 603 line~;
#X msg 769 561 0 20;
#X obj 772 525 del 20;
#X obj 765 482 bng 15 250 50 0 empty empty empty 17 7 0 10 #fcfcfc
#000000 #000000;
#X obj 752 442 moses 1;
#X floatatom 761 420 5 0 0 0 - - - 0;
#X obj 724 662 outlet~;
#X obj 654 664 outlet;
#X obj 694 334 unpack 0 0;
#X obj 518 106 poly 3 1;
#X obj 507 230 route 1 2 3;
#X text 18 15 3 voices poly patch;
#X text 22 65 Output : Freq and dynamique for each voice;
#X connect 0 0 1 0;
#X connect 1 0 2 0;
#X connect 2 0 11 0;
#X connect 2 1 3 0;
#X connect 3 0 4 0;
#X connect 4 0 10 0;
#X connect 5 0 4 0;
#X connect 6 0 5 0;
#X connect 7 0 6 0;
#X connect 8 0 7 0;
#X connect 9 0 8 0;
#X connect 12 0 41 0;
#X connect 12 1 41 1;
#X connect 13 0 42 0;
#X connect 14 0 0 0;
#X connect 14 1 9 0;
#X connect 15 0 16 0;
#X connect 16 0 17 0;
#X connect 17 0 26 0;
#X connect 17 1 18 0;
#X connect 18 0 19 0;
#X connect 19 0 25 0;
#X connect 20 0 19 0;
#X connect 21 0 20 0;
#X connect 22 0 21 0;
#X connect 23 0 22 0;
#X connect 24 0 23 0;
#X connect 27 0 15 0;
#X connect 27 1 24 0;
#X connect 28 0 29 0;
#X connect 29 0 30 0;
#X connect 30 0 39 0;
#X connect 30 1 31 0;
#X connect 31 0 32 0;
#X connect 32 0 38 0;
#X connect 33 0 32 0;
#X connect 34 0 33 0;
#X connect 35 0 34 0;
#X connect 36 0 35 0;
#X connect 37 0 36 0;
#X connect 40 0 28 0;
#X connect 40 1 37 0;
#X connect 41 0 13 0;
#X connect 41 1 13 1;
#X connect 41 2 13 2;
#X connect 42 0 14 0;
#X connect 42 1 27 0;
#X connect 42 2 40 0;
