#N canvas -8 0 1920 966 12;
#X obj 6 6 cnv 15 700 300 empty empty 32\\\ Step\\\ Sequencer 20 12
0 14 #f27be7 #404040 0;
#X obj 9 616 cnv 15 1900 220 empty empty Instruments 20 12 0 14 #d6ebd9
#404040 0;
#N canvas -8 0 958 956 snare_sample 0;
#X obj 153 100 tgl 15 0 empty empty empty 17 7 0 10 #fcfcfc #000000
#000000 0 1;
#X obj 157 126 trigger bang bang;
#X msg 158 148 start;
#X msg 241 206 open \$1;
#X obj 158 199 readsf~ 2;
#X msg 108 171 stop;
#X obj 242 159 bng 15 250 50 0 empty empty empty 17 7 0 10 #fcfcfc
#000000 #000000;
#X obj 242 181 openpanel;
#X obj 218 234 bng 15 250 50 0 empty empty empty 17 7 0 10 #fcfcfc
#000000 #000000;
#X obj 152 58 inlet;
#X obj 172 496 outlet~;
#X obj 73 490 outlet~;
#X obj 285 454 *~;
#X obj 394 409 inlet;
#X msg 271 159 open ./Samples/ClapSnare_042_-_(PML_MTD_FR_V1).wav,
f 63;
#X connect 0 0 1 0;
#X connect 1 0 2 0;
#X connect 1 1 14 0;
#X connect 2 0 4 0;
#X connect 3 0 4 0;
#X connect 4 0 12 0;
#X connect 4 1 12 0;
#X connect 4 2 8 0;
#X connect 5 0 4 0;
#X connect 6 0 7 0;
#X connect 7 0 3 0;
#X connect 9 0 0 0;
#X connect 12 0 10 0;
#X connect 12 0 11 0;
#X connect 13 0 12 1;
#X connect 14 0 4 0;
#X restore 21 800 pd snare_sample;
#N canvas 1020 63 826 667 conga_sample 0;
#X obj 153 100 tgl 15 0 empty empty empty 17 7 0 10 #fcfcfc #000000
#000000 0 1;
#X obj 157 126 trigger bang bang;
#X msg 158 148 start;
#X msg 241 206 open \$1;
#X obj 158 199 readsf~ 2;
#X msg 108 171 stop;
#X obj 242 159 bng 15 250 50 0 empty empty empty 17 7 0 10 #fcfcfc
#000000 #000000;
#X obj 242 181 openpanel;
#X obj 218 234 bng 15 250 50 0 empty empty empty 17 7 0 10 #fcfcfc
#000000 #000000;
#X obj 152 58 inlet;
#X obj 204 481 outlet~;
#X obj 137 481 outlet~;
#X obj 171 414 *~;
#X obj 737 401 inlet;
#X msg 270 162 open ./Samples/PML_DPV4_CB_001.wav;
#X connect 0 0 1 0;
#X connect 1 0 2 0;
#X connect 1 1 14 0;
#X connect 2 0 4 0;
#X connect 3 0 4 0;
#X connect 4 0 12 0;
#X connect 4 1 12 0;
#X connect 4 2 8 0;
#X connect 5 0 4 0;
#X connect 6 0 7 0;
#X connect 7 0 3 0;
#X connect 9 0 0 0;
#X connect 12 0 10 0;
#X connect 12 0 11 0;
#X connect 13 0 12 1;
#X connect 14 0 4 0;
#X restore 281 741 pd conga_sample;
#N canvas 1020 63 826 667 kick_sample 0;
#X obj 153 100 tgl 15 0 empty empty empty 17 7 0 10 #fcfcfc #000000
#000000 0 1;
#X obj 157 126 trigger bang bang;
#X msg 158 148 start;
#X msg 241 206 open \$1;
#X obj 158 199 readsf~ 2;
#X msg 108 171 stop;
#X obj 242 159 bng 15 250 50 0 empty empty empty 17 7 0 10 #fcfcfc
#000000 #000000;
#X obj 242 181 openpanel;
#X obj 218 234 bng 15 250 50 0 empty empty empty 17 7 0 10 #fcfcfc
#000000 #000000;
#X obj 152 58 inlet;
#X obj 204 481 outlet~;
#X obj 137 481 outlet~;
#X obj 171 414 *~;
#X obj 737 401 inlet;
#X msg 271 159 open ./Samples/PML_DPV4_KICK_025.wav;
#X connect 0 0 1 0;
#X connect 1 0 2 0;
#X connect 1 1 14 0;
#X connect 2 0 4 0;
#X connect 3 0 4 0;
#X connect 4 0 12 0;
#X connect 4 1 12 0;
#X connect 4 2 8 0;
#X connect 5 0 4 0;
#X connect 6 0 7 0;
#X connect 7 0 3 0;
#X connect 9 0 0 0;
#X connect 12 0 10 0;
#X connect 12 0 11 0;
#X connect 13 0 12 1;
#X connect 14 0 4 0;
#X restore 627 801 pd kick_sample;
#X obj 236 10 tgl 20 0 empty Sequencer_on empty 17 7 0 10 #fcfcfc #000000
#000000 0 1;
#X floatatom 372 12 5 0 0 0 - global_bpm - 0;
#X text 347 12 BPM;
#X obj 511 601 s kick;
#X obj 627 772 r kick;
#X obj 185 906 outlet~;
#X obj 491 906 outlet~;
#X obj 679 12 bng 20 250 50 0 empty empty empty 17 7 0 10 #fcfcfc #000000
#000000;
#X text 640 13 Reset;
#X text 190 11 On/Off;
#X text 419 12 Sequencer subdivision;
#X obj 18 80 cnv 15 675 200 empty empty Instruments 20 12 0 14 #d5ffd6
#404040 0;
#X text 552 285 Open patch to compose;
#X obj 712 353 cnv 15 300 100 empty empty Mesure\\\ 1 20 12 0 14 #e0e0e0
#404040 0;
#X obj 719 375 r I.I, f 3;
#X obj 746 376 r I.II, f 4;
#X obj 781 376 r I.III, f 5;
#X obj 823 376 r I.IV, f 4;
#X obj 858 376 r I.V, f 3;
#X obj 886 376 r I.VI, f 4;
#X obj 921 376 r I.VII, f 5;
#X obj 963 376 r I.VIII, f 6;
#X obj 1014 353 cnv 15 300 100 empty empty Mesure\\\ 2 20 12 0 14 #e0e0e0
#404040 0;
#X obj 1018 380 r II.I, f 3;
#X obj 1047 380 r II.II, f 4;
#X obj 1082 380 r II.III, f 5;
#X obj 1124 380 r II.IV, f 4;
#X obj 1159 380 r II.V, f 3;
#X obj 1187 380 r II.VI, f 4;
#X obj 1222 380 r II.VII, f 5;
#X obj 1264 380 r II.VIII, f 6;
#X obj 1316 353 cnv 15 300 100 empty empty Mesure\\\ 3 20 12 0 14 #e0e0e0
#404040 0;
#X obj 1323 388 r III.I, f 3;
#X obj 1352 388 r III.II, f 4;
#X obj 1387 388 r III.III, f 5;
#X obj 1429 388 r III.IV, f 4;
#X obj 1464 388 r III.V, f 3;
#X obj 1491 387 r III.VI, f 4;
#X obj 1527 388 r III.VII, f 5;
#X obj 1569 388 r III.VIII, f 6;
#X obj 1618 353 cnv 15 300 100 empty empty Mesure\\\ 4 20 12 0 14 #e0e0e0
#404040 0;
#X obj 1621 391 r IV.I, f 3;
#X obj 1650 391 r IV.II, f 4;
#X obj 1685 391 r IV.III, f 5;
#X obj 1728 391 r IV.IV, f 4;
#X obj 1763 391 r IV.V, f 3;
#X obj 1790 391 r IV.VI, f 4;
#X obj 1825 391 r IV.VII, f 5;
#X obj 1867 391 r IV.VIII, f 6;
#X obj 1083 14 cnv 15 800 300 empty empty Fonctionnel\\\ Sequencer
20 12 0 14 #e0e0e0 #404040 0;
#X obj 35 43 hradio 20 1 0 32 empty empty empty 0 -8 0 10 #fcfcfc #000000
#000000 0;
#X floatatom 1181 141 5 0 0 0 - - - 0;
#X obj 1180 83 float, f 6;
#X obj 1221 62 + 1;
#X obj 1181 104 mod 32;
#X obj 1106 179 select 0 1 2 3 4 5 6 7 8 9 10 11 12 13 14 15 16 17
18 19 20 21 22 23 24 25 26 27 28 29 30 31, f 109;
#X obj 1413 96 metro 1 120 permin, f 19;
#X msg 1413 46 tempo \$1 permin;
#X floatatom 1543 72 5 0 0 0 - - - 0;
#X obj 1543 48 expr 1/$f1;
#X obj 1106 207 s I.I;
#X obj 1129 229 s I.II;
#X obj 1153 250 s I.III;
#X obj 1174 273 s I.IV;
#X obj 1174 211 s I.V, f 6;
#X obj 1207 254 s I.VII;
#X obj 1181 231 s I.VI;
#X obj 1230 274 s I.VIII;
#X obj 1274 214 s II.I;
#X obj 1297 237 s II.II;
#X obj 1323 259 s II.III;
#X obj 1350 293 s II.IV;
#X obj 1341 216 s II.V;
#X obj 1364 237 s II.VI;
#X obj 1390 260 s II.VII;
#X obj 1418 291 s II.VIII;
#X obj 1442 225 s III.I;
#X obj 1465 248 s III.II;
#X obj 1489 270 s III.III;
#X obj 1513 293 s III.IV;
#X obj 1509 227 s III.V;
#X obj 1532 248 s III.VI;
#X obj 1558 271 s III.VII;
#X obj 1581 291 s III.VIII;
#X obj 1658 208 s IV.I;
#X obj 1681 231 s IV.II;
#X obj 1704 253 s IV.III;
#X obj 1729 276 s IV.IV;
#X obj 1725 209 s IV.V;
#X obj 1749 231 s IV.VI;
#X obj 1774 254 s IV.VII;
#X obj 1797 274 s IV.VIII;
#X msg 1120 134 0;
#X floatatom 570 12 5 0 0 0 - seq_subd - 0;
#N canvas 32 32 720 426 out16/16 0;
#X obj 163 114 hradio 15 1 0 16 empty empty empty 0 -8 0 10 #fcfcfc
#000000 #000000 0;
#X obj 133 52 float, f 6;
#X obj 174 31 + 1;
#X obj 246 270 outlet;
#X obj 128 20 inlet;
#X obj 134 73 mod 16;
#X obj 160 150 select 0 1 2 3 4 5 6 7 8 9 10 11 12 13 14 15;
#X obj 264 8 inlet;
#X msg 307 65 0;
#X connect 0 0 2 0;
#X connect 0 0 6 0;
#X connect 1 0 5 0;
#X connect 2 0 1 1;
#X connect 4 0 1 0;
#X connect 5 0 0 0;
#X connect 6 0 3 0;
#X connect 6 1 3 0;
#X connect 6 2 3 0;
#X connect 6 3 3 0;
#X connect 6 4 3 0;
#X connect 6 5 3 0;
#X connect 6 6 3 0;
#X connect 6 7 3 0;
#X connect 6 8 3 0;
#X connect 6 9 3 0;
#X connect 6 10 3 0;
#X connect 6 11 3 0;
#X connect 6 12 3 0;
#X connect 6 13 3 0;
#X connect 6 14 3 0;
#X connect 7 0 8 0;
#X connect 8 0 1 0;
#X restore 548 572 pd out16/16;
#N canvas 32 32 720 426 (subpatch) 0;
#X obj 163 114 hradio 15 1 0 16 empty empty empty 0 -8 0 10 #fcfcfc
#000000 #000000 0;
#X obj 133 52 float, f 6;
#X obj 174 31 + 1;
#X obj 246 270 outlet;
#X obj 128 20 inlet;
#X obj 134 73 mod 16;
#X obj 160 150 select 0 1 2 3 4 5 6 7 8 9 10 11 12 13 14 15;
#X obj 239 18 inlet;
#X msg 282 75 0;
#X connect 0 0 2 0;
#X connect 0 0 6 0;
#X connect 1 0 5 0;
#X connect 2 0 1 1;
#X connect 4 0 1 0;
#X connect 5 0 0 0;
#X connect 6 3 3 0;
#X connect 6 7 3 0;
#X connect 6 11 3 0;
#X connect 6 15 3 0;
#X connect 7 0 8 0;
#X connect 8 0 1 0;
#X restore 672 575 pd 4 8 12 16/16;
#X obj 794 12 s reset;
#X obj 773 552 r reset;
#X obj 623 549 r reset;
#N canvas 1020 63 826 667 hh_sample 0;
#X obj 153 100 tgl 15 0 empty empty empty 17 7 0 10 #fcfcfc #000000
#000000 0 1;
#X obj 157 126 trigger bang bang;
#X msg 158 148 start;
#X msg 241 206 open \$1;
#X obj 158 199 readsf~ 2;
#X msg 108 171 stop;
#X obj 242 159 bng 15 250 50 0 empty empty empty 17 7 0 10 #fcfcfc
#000000 #000000;
#X obj 242 181 openpanel;
#X obj 218 234 bng 15 250 50 0 empty empty empty 17 7 0 10 #fcfcfc
#000000 #000000;
#X obj 152 58 inlet;
#X obj 204 481 outlet~;
#X obj 137 481 outlet~;
#X obj 171 414 *~;
#X obj 737 401 inlet;
#X msg 271 159 open ./Samples/PML_DPV4_CH_005.wav;
#X connect 0 0 1 0;
#X connect 1 0 2 0;
#X connect 1 1 14 0;
#X connect 2 0 4 0;
#X connect 3 0 4 0;
#X connect 4 0 12 0;
#X connect 4 1 12 0;
#X connect 4 2 8 0;
#X connect 5 0 4 0;
#X connect 6 0 7 0;
#X connect 7 0 3 0;
#X connect 9 0 0 0;
#X connect 12 0 10 0;
#X connect 12 0 11 0;
#X connect 13 0 12 1;
#X connect 14 0 4 0;
#X restore 994 789 pd hh_sample;
#X obj 994 760 r hh;
#X obj 916 587 s hh;
#N canvas 468 124 450 180 rand_vol 0;
#X obj 79 34 inlet;
#X obj 78 85 bng 15 250 50 0 empty empty empty 17 7 0 10 #fcfcfc #000000
#000000;
#X obj 77 175 outlet;
#X msg 132 103 5;
#X obj 81 155 / 100;
#X obj 80 131 random 90;
#X connect 0 0 1 0;
#X connect 1 0 5 0;
#X connect 3 0 5 1;
#X connect 4 0 2 0;
#X connect 5 0 4 0;
#X restore 1015 582 pd rand_vol;
#X msg 973 587 1;
#N canvas 32 32 720 426 (subpatch) 0;
#X obj 163 114 hradio 15 1 0 16 empty empty empty 0 -8 0 10 #fcfcfc
#000000 #000000 0;
#X obj 133 52 float, f 6;
#X obj 174 31 + 1;
#X obj 246 270 outlet;
#X obj 128 20 inlet;
#X obj 134 73 mod 16;
#X obj 160 150 select 0 1 2 3 4 5 6 7 8 9 10 11 12 13 14 15;
#X obj 239 18 inlet;
#X msg 282 75 0;
#X connect 0 0 2 0;
#X connect 0 0 6 0;
#X connect 1 0 5 0;
#X connect 2 0 1 1;
#X connect 4 0 1 0;
#X connect 5 0 0 0;
#X connect 6 3 3 0;
#X connect 6 7 3 0;
#X connect 6 11 3 0;
#X connect 6 15 3 0;
#X connect 7 0 8 0;
#X connect 8 0 1 0;
#X restore 1129 566 pd 4 8 12 16/16;
#X obj 1227 543 r reset;
#N canvas 1020 63 826 667 hh_sample 0;
#X obj 153 100 tgl 15 0 empty empty empty 17 7 0 10 #fcfcfc #000000
#000000 0 1;
#X obj 157 126 trigger bang bang;
#X msg 158 148 start;
#X msg 241 206 open \$1;
#X obj 158 199 readsf~ 2;
#X msg 108 171 stop;
#X obj 242 159 bng 15 250 50 0 empty empty empty 17 7 0 10 #fcfcfc
#000000 #000000;
#X obj 242 181 openpanel;
#X obj 218 234 bng 15 250 50 0 empty empty empty 17 7 0 10 #fcfcfc
#000000 #000000;
#X obj 152 58 inlet;
#X obj 204 481 outlet~;
#X obj 137 481 outlet~;
#X obj 171 414 *~;
#X obj 737 401 inlet;
#X msg 271 159 open ./Samples/PML_DPV4_CH_005.wav;
#X connect 0 0 1 0;
#X connect 1 0 2 0;
#X connect 1 1 14 0;
#X connect 2 0 4 0;
#X connect 3 0 4 0;
#X connect 4 0 12 0;
#X connect 4 1 12 0;
#X connect 4 2 8 0;
#X connect 5 0 4 0;
#X connect 6 0 7 0;
#X connect 7 0 3 0;
#X connect 9 0 0 0;
#X connect 12 0 10 0;
#X connect 12 0 11 0;
#X connect 13 0 12 1;
#X connect 14 0 4 0;
#X restore 1403 772 pd hh_sample;
#X obj 1407 738 r hh_start;
#X obj 1403 604 s hh_start;
#X obj 35 575 s snare;
#X obj 21 774 r snare;
#X msg 1499 574 1, f 1;
#N canvas 468 124 450 180 rand_vol 0;
#X obj 79 34 inlet;
#X obj 78 85 bng 15 250 50 0 empty empty empty 17 7 0 10 #fcfcfc #000000
#000000;
#X obj 77 175 outlet;
#X msg 132 103 5;
#X obj 81 155 / 100;
#X obj 80 131 random 90;
#X connect 0 0 1 0;
#X connect 1 0 5 0;
#X connect 3 0 5 1;
#X connect 4 0 2 0;
#X connect 5 0 4 0;
#X restore 1514 572 pd rand_vol;
#X obj 1654 525 r reset;
#N canvas 32 32 720 426 (subpatch) 0;
#X obj 163 114 hradio 15 1 0 8 empty empty empty 0 -8 0 10 #fcfcfc
#000000 #000000 0;
#X obj 133 52 float, f 6;
#X obj 174 31 + 1;
#X obj 246 270 outlet;
#X obj 128 20 inlet;
#X obj 239 18 inlet;
#X msg 282 75 0;
#X obj 134 74 mod 8;
#X obj 160 150 select 0 1 2 3 4 5 6 7;
#X connect 0 0 2 0;
#X connect 0 0 8 0;
#X connect 1 0 7 0;
#X connect 2 0 1 1;
#X connect 4 0 1 0;
#X connect 5 0 6 0;
#X connect 6 0 1 0;
#X connect 7 0 0 0;
#X connect 8 1 3 0;
#X connect 8 5 3 0;
#X connect 8 7 3 0;
#X restore 1588 545 pd 2 6 8/8;
#X obj 1672 557 r reset;
#N canvas 32 32 720 426 4/8 0;
#X obj 163 114 hradio 15 1 0 8 empty empty empty 0 -8 0 10 #fcfcfc
#000000 #000000 0;
#X obj 133 52 float, f 6;
#X obj 174 31 + 1;
#X obj 246 270 outlet;
#X obj 128 20 inlet;
#X obj 239 18 inlet;
#X msg 282 75 0;
#X obj 134 74 mod 8;
#X obj 160 150 select 0 1 2 3 4 5 6 7;
#X connect 0 0 2 0;
#X connect 0 0 8 0;
#X connect 1 0 7 0;
#X connect 2 0 1 1;
#X connect 4 0 1 0;
#X connect 5 0 6 0;
#X connect 6 0 1 0;
#X connect 7 0 0 0;
#X connect 8 3 3 0;
#X restore 1633 577 pd 4/8;
#X obj 1498 610 *;
#X obj 979 614 *;
#X obj 151 91 cnv 15 70 180 empty empty HH\\\ Start 5 7 0 10 #e0e0e0
#404040 0;
#X obj 191 128 vsl 15 128 0 1 0 0 empty empty Vel 0 -9 0 10 #ffe3c6
#000000 #000000 0 1;
#X obj 163 128 vsl 15 128 0 1 0 0 empty hh_start_vol Vol 0 -9 0 10
#ffc7c6 #000000 #000000 0 1;
#X obj 401 91 cnv 15 100 180 empty empty Bass 5 7 0 10 #e0e0e0 #404040
0;
#X obj 584 92 cnv 15 70 180 empty empty Conga 5 7 0 10 #e0e0e0 #404040
0;
#X obj 504 92 cnv 15 35 180 empty empty Snare 5 7 0 10 #e0e0e0 #404040
0;
#X obj 341 91 cnv 15 35 180 empty empty Kick 5 7 0 10 #e0e0e0 #404040
0;
#X obj 246 91 cnv 15 70 180 empty empty HH\\\ Close 5 7 0 10 #e0e0e0
#404040 0;
#X obj 287 128 vsl 15 128 0 1 0 0 empty empty Vel 0 -9 0 10 #ffe3c6
#000000 #000000 0 1;
#X obj 259 129 vsl 15 128 0 1 0 0 empty hh_vol Vol 0 -9 0 10 #ffc7c6
#000000 #000000 0 1;
#X obj 350 127 vsl 15 128 0 1 0 0 empty kick_vol Vol 0 -9 0 10 #ffc7c6
#000000 #000000 0 1;
#X obj 1708 694 Bass_Line;
#X obj 440 125 vsl 15 128 0 1 0 0 empty empty Vel 0 -9 0 10 #ffe3c6
#000000 #000000 0 1;
#X obj 513 123 vsl 15 128 0 1 0 0 empty snare_vol Vol 0 -9 0 10 #ffc7c6
#000000 #000000 0 1;
#X obj 278 709 r conga;
#X obj 279 602 s conga;
#N canvas 32 32 450 180 2/8 0;
#X obj 162 114 hradio 15 1 0 8 empty empty empty 0 -8 0 10 #fcfcfc
#000000 #000000 0;
#X obj 133 52 float, f 6;
#X obj 174 31 + 1;
#X obj 193 192 outlet;
#X obj 128 20 inlet;
#X obj 134 73 mod 8;
#X obj 160 150 select 0 1 2 3 4 5 6 7;
#X connect 0 0 2 0;
#X connect 0 0 6 0;
#X connect 1 0 5 0;
#X connect 2 0 1 1;
#X connect 4 0 1 0;
#X connect 5 0 0 0;
#X connect 6 1 3 0;
#X restore 273 554 pd 2/8;
#N canvas 32 32 450 156 (subpatch) 0;
#X obj 162 114 hradio 15 1 0 8 empty empty empty 0 -8 0 10 #fcfcfc
#000000 #000000 0;
#X obj 133 52 float, f 6;
#X obj 174 31 + 1;
#X obj 193 192 outlet;
#X obj 128 20 inlet;
#X obj 134 73 mod 8;
#X obj 160 150 select 0 1 2 3 4 5 6 7;
#X connect 0 0 2 0;
#X connect 0 0 6 0;
#X connect 1 0 5 0;
#X connect 2 0 1 1;
#X connect 4 0 1 0;
#X connect 5 0 0 0;
#X connect 6 2 3 0;
#X connect 6 5 3 0;
#X restore 326 564 pd 3 6/8;
#X obj 595 124 vsl 15 128 0 1 0 0 empty conga_vol Vol 0 -9 0 10 #ffc7c6
#000000 #000000 0 1;
#N canvas 32 32 450 132 (subpatch) 0;
#X obj 162 114 hradio 15 1 0 8 empty empty empty 0 -8 0 10 #fcfcfc
#000000 #000000 0;
#X obj 133 52 float, f 6;
#X obj 174 31 + 1;
#X obj 193 192 outlet;
#X obj 128 20 inlet;
#X obj 134 73 mod 8;
#X obj 160 150 select 0 1 2 3 4 5 6 7;
#X connect 0 0 2 0;
#X connect 0 0 6 0;
#X connect 1 0 5 0;
#X connect 2 0 1 1;
#X connect 4 0 1 0;
#X connect 5 0 0 0;
#X connect 6 3 3 0;
#X connect 6 7 3 0;
#X restore 382 601 pd 3 6/8;
#X obj 1851 578 s bass;
#X obj 1708 656 r bass;
#X obj 1734 721 Low_Pass;
#X obj 465 124 vsl 15 128 1 20000 1 1 empty empty Cut\\\ Off 0 -9 0
8 #eaeca2 #000000 #000000 0 1;
#X obj 1709 747 +~;
#X obj 1709 780 /~ 2;
#X obj 314 801 Disto;
#X obj 619 125 vsl 15 128 1 10 0 0 empty empty Dist 0 -9 0 10 #e3c6ff
#000000 #000000 0 1;
#X obj 1831 651 random 10;
#X obj 1849 690 / 10;
#X obj 1574 832 *~;
#X obj 415 124 vsl 15 128 0 1 0 0 empty bass_vol Vol 0 -9 0 10 #ffc7c6
#000000 #000000 0 1;
#X text 1016 334 Send pour savoir plus facilement sur quelle mesure
on patch;
#X text 56 331 A 32 step sequencer with BPM control \, Sequencer step
division (originaly 8) \, reset button to restart;
#X text 662 593 To set occurences (here on 4 8 12 16 mesures each 16)
, f 21;
#X text 1716 606 Random velocity;
#X connect 2 0 10 0;
#X connect 2 1 11 0;
#X connect 3 0 150 0;
#X connect 3 1 150 0;
#X connect 4 0 10 0;
#X connect 4 1 11 0;
#X connect 5 0 61 0;
#X connect 6 0 62 0;
#X connect 9 0 4 0;
#X connect 12 0 97 0;
#X connect 12 0 101 0;
#X connect 19 0 8 0;
#X connect 19 0 106 0;
#X connect 19 0 108 0;
#X connect 19 0 113 0;
#X connect 19 0 116 0;
#X connect 19 0 144 0;
#X connect 21 0 107 0;
#X connect 21 0 106 0;
#X connect 21 0 144 0;
#X connect 23 0 107 0;
#X connect 23 0 106 0;
#X connect 23 0 144 0;
#X connect 25 0 107 0;
#X connect 25 0 106 0;
#X connect 25 0 144 0;
#X connect 26 0 107 0;
#X connect 28 0 8 0;
#X connect 28 0 144 0;
#X connect 30 0 107 0;
#X connect 30 0 106 0;
#X connect 30 0 114 0;
#X connect 30 0 144 0;
#X connect 32 0 107 0;
#X connect 32 0 106 0;
#X connect 32 0 113 0;
#X connect 32 0 117 0;
#X connect 32 0 144 0;
#X connect 34 0 107 0;
#X connect 34 0 106 0;
#X connect 34 0 113 0;
#X connect 34 0 117 0;
#X connect 34 0 144 0;
#X connect 34 0 140 0;
#X connect 37 0 8 0;
#X connect 37 0 108 0;
#X connect 37 0 106 0;
#X connect 37 0 144 0;
#X connect 39 0 107 0;
#X connect 39 0 106 0;
#X connect 39 0 144 0;
#X connect 39 0 141 0;
#X connect 41 0 107 0;
#X connect 41 0 106 0;
#X connect 41 0 113 0;
#X connect 41 0 117 0;
#X connect 41 0 144 0;
#X connect 43 0 107 0;
#X connect 43 0 106 0;
#X connect 43 0 113 0;
#X connect 43 0 117 0;
#X connect 43 0 144 0;
#X connect 46 0 99 0;
#X connect 46 0 107 0;
#X connect 46 0 106 0;
#X connect 46 0 121 0;
#X connect 46 0 114 0;
#X connect 46 0 144 0;
#X connect 48 0 119 0;
#X connect 48 0 117 0;
#X connect 48 0 144 0;
#X connect 48 0 143 0;
#X connect 50 0 100 0;
#X connect 50 0 107 0;
#X connect 50 0 106 0;
#X connect 50 0 113 0;
#X connect 50 0 117 0;
#X connect 50 0 144 0;
#X connect 52 0 107 0;
#X connect 52 0 106 0;
#X connect 52 0 119 0;
#X connect 52 0 117 0;
#X connect 52 0 121 0;
#X connect 52 0 144 0;
#X connect 53 0 109 0;
#X connect 55 0 56 0;
#X connect 56 0 58 0;
#X connect 56 0 60 0;
#X connect 57 0 59 0;
#X connect 58 0 57 1;
#X connect 59 0 55 0;
#X connect 60 0 65 0;
#X connect 60 1 66 0;
#X connect 60 2 67 0;
#X connect 60 3 68 0;
#X connect 60 4 69 0;
#X connect 60 5 71 0;
#X connect 60 6 70 0;
#X connect 60 7 72 0;
#X connect 60 8 73 0;
#X connect 60 9 74 0;
#X connect 60 10 75 0;
#X connect 60 11 76 0;
#X connect 60 12 77 0;
#X connect 60 13 78 0;
#X connect 60 14 79 0;
#X connect 60 15 80 0;
#X connect 60 16 81 0;
#X connect 60 17 82 0;
#X connect 60 18 83 0;
#X connect 60 19 84 0;
#X connect 60 20 85 0;
#X connect 60 21 86 0;
#X connect 60 22 87 0;
#X connect 60 23 88 0;
#X connect 60 24 89 0;
#X connect 60 25 90 0;
#X connect 60 26 91 0;
#X connect 60 27 92 0;
#X connect 60 28 93 0;
#X connect 60 29 94 0;
#X connect 60 30 95 0;
#X connect 60 31 96 0;
#X connect 61 0 57 0;
#X connect 62 0 61 0;
#X connect 63 0 61 1;
#X connect 64 0 63 0;
#X connect 97 0 57 0;
#X connect 98 0 64 0;
#X connect 99 0 8 0;
#X connect 100 0 8 0;
#X connect 102 0 100 1;
#X connect 103 0 99 1;
#X connect 104 0 10 0;
#X connect 104 1 11 0;
#X connect 105 0 104 0;
#X connect 107 0 123 0;
#X connect 108 0 123 0;
#X connect 109 0 107 0;
#X connect 109 0 106 0;
#X connect 110 0 109 1;
#X connect 111 0 10 0;
#X connect 111 1 11 0;
#X connect 112 0 111 0;
#X connect 115 0 2 0;
#X connect 116 0 122 0;
#X connect 117 0 122 0;
#X connect 118 0 119 1;
#X connect 119 0 117 0;
#X connect 119 0 113 0;
#X connect 120 0 121 1;
#X connect 121 0 117 0;
#X connect 121 0 113 0;
#X connect 122 0 125 0;
#X connect 123 0 132 0;
#X connect 125 0 111 1;
#X connect 126 0 122 1;
#X connect 132 0 104 1;
#X connect 133 0 123 1;
#X connect 134 0 4 1;
#X connect 135 0 146 0;
#X connect 135 0 148 0;
#X connect 136 0 135 1;
#X connect 137 0 2 1;
#X connect 138 0 3 0;
#X connect 140 0 139 0;
#X connect 141 0 139 0;
#X connect 142 0 3 1;
#X connect 143 0 139 0;
#X connect 145 0 135 0;
#X connect 145 0 152 0;
#X connect 146 0 148 1;
#X connect 147 0 146 1;
#X connect 148 0 149 0;
#X connect 149 0 154 0;
#X connect 150 0 10 0;
#X connect 150 0 11 0;
#X connect 151 0 150 1;
#X connect 152 0 153 0;
#X connect 153 0 136 0;
#X connect 154 0 10 0;
#X connect 154 0 11 0;
#X connect 155 0 154 1;
#X coords 0 -1 1 1 700 300 1 5 5;
