#N canvas 64 64 450 357 12;
#X obj 128 37 inlet;
#X obj 128 62 phasor~;
#X obj 129 96 -~ 0.5;
#X obj 128 140 *~ 2;
#X obj 128 176 abs~;
#X obj 129 207 -~ 0.5;
#X obj 129 233 *~ 2;
#X obj 128 257 outlet~;
#X connect 0 0 1 0;
#X connect 1 0 2 0;
#X connect 2 0 3 0;
#X connect 3 0 4 0;
#X connect 4 0 5 0;
#X connect 5 0 6 0;
#X connect 6 0 7 0;
